<?xml version="1.0" standalone="no"?>
<!DOCTYPE svg PUBLIC "-//W3C//DTD SVG 20010904//EN"
 "http://www.w3.org/TR/2001/REC-SVG-20010904/DTD/svg10.dtd">
<svg version="1.0" xmlns="http://www.w3.org/2000/svg"
 width="512.000000pt" height="460.000000pt" viewBox="0 0 512.000000 460.000000"
 preserveAspectRatio="xMidYMid meet">
<metadata>
Created by potrace 1.12, written by Peter Selinger 2001-2015
</metadata>
<g transform="translate(0.000000,460.000000) scale(0.100000,-0.100000)"
fill="#000000" stroke="none">
<path d="M213 4582 c-63 -22 -115 -61 -154 -115 -63 -87 -59 20 -57 -1812 l3
-1670 26 -55 c34 -72 100 -135 166 -160 53 -20 79 -20 2363 -20 2284 0 2310 0
2363 20 66 25 132 88 166 160 l26 55 0 1690 0 1690 -28 57 c-32 65 -89 121
-156 152 l-46 21 -2310 2 c-2197 2 -2313 2 -2362 -15z m4517 -1857 l0 -1435
-2170 0 -2170 0 0 1435 0 1435 2170 0 2170 0 0 -1435z"/>
<path d="M3938 3310 c-87 -26 -147 -102 -150 -186 -1 -27 1 -58 5 -70 6 -18
-27 -52 -227 -232 -326 -295 -289 -267 -336 -248 -55 22 -105 20 -157 -5 l-43
-21 -35 29 c-19 15 -133 111 -254 213 l-218 185 0 70 c1 83 -14 117 -74 169
-47 40 -86 51 -159 44 -69 -7 -123 -46 -156 -115 -23 -46 -26 -62 -20 -108 l6
-54 -475 -370 -475 -370 -47 21 c-126 55 -275 -47 -275 -189 0 -94 57 -172
146 -198 140 -42 279 70 263 212 l-5 44 177 143 c97 79 310 249 474 379 l299
236 40 -20 c40 -21 91 -22 158 -4 23 6 57 -20 290 -218 l263 -224 2 -50 c6
-163 190 -251 327 -156 53 36 91 116 86 181 l-3 49 265 239 265 240 52 -15
c199 -54 338 201 188 345 -56 54 -130 74 -197 54z"/>
<path d="M1690 300 l-292 -300 1167 0 1167 0 -294 300 -293 300 -581 0 -581 0
-293 -300z"/>
</g>
</svg>
